<?xml version="1.0" standalone="no"?>
<!DOCTYPE svg PUBLIC "-//W3C//DTD SVG 20010904//EN" "http://www.w3.org/TR/2001/REC-SVG-20010904/DTD/svg10.dtd">
<svg version="1.0" xmlns="http://www.w3.org/2000/svg" width="420.000000pt" height="420.000000pt" viewBox="0 0 420.000000 420.000000" preserveAspectRatio="xMidYMid meet">
    <metadata>
        Created by potrace 1.11, written by Peter Selinger 2001-2013
    </metadata>
    <g transform="translate(0.000000,420.000000) scale(0.100000,-0.100000)" fill="#000000" stroke="none">
        <path
            d="M1986 4049 c-65 -13 -146 -51 -296 -139 -69 -40 -143 -83 -165 -95
-22 -13 -80 -46 -130 -75 -49 -29 -173 -100 -275 -159 -532 -307 -563 -326
-621 -383 -63 -62 -114 -143 -144 -228 -19 -53 -20 -89 -22 -845 -2 -526 1
-807 8 -840 21 -96 84 -209 160 -285 38 -38 74 -70 80 -70 5 0 28 -12 52 -27
23 -15 51 -32 62 -38 11 -7 214 -123 450 -260 237 -137 495 -286 573 -331 79
-46 172 -92 205 -104 120 -42 262 -37 385 13 47 19 444 243 807 457 44 25 180
104 301 175 122 70 242 146 266 169 97 89 157 196 178 318 7 43 10 316 8 838
l-3 775 -24 65 c-62 168 -140 245 -398 391 -18 10 -119 69 -225 130 -106 61
-213 123 -238 137 -36 20 -382 220 -475 274 -155 91 -199 113 -259 128 -77 19
-186 23 -260 9z"/>
    </g>
</svg>
